<svg width="17" height="17" viewBox="0 0 17 17" fill="none" xmlns="http://www.w3.org/2000/svg">
<path fill-rule="evenodd" clip-rule="evenodd" d="M5.78004 0H11.22C12.9092 0 14.28 1.3708 14.28 3.06002C14.28 4.24379 13.6068 5.27114 12.6226 5.77997C13.6068 6.28883 14.28 7.31622 14.28 8.49998C14.28 10.1892 12.9092 11.56 11.22 11.56C10.2591 11.56 9.40121 11.1164 8.84009 10.423V13.94C8.84009 15.6292 7.46927 17 5.78004 17C4.09082 17 2.72 15.6292 2.72 13.94C2.72 12.7562 3.39319 11.7288 4.3774 11.22C3.39319 10.7111 2.72 9.68374 2.72 8.49998C2.72 7.31622 3.39319 6.28883 4.37738 5.77997C3.39319 5.27114 2.72 4.24379 2.72 3.06002C2.72 1.3708 4.09082 0 5.78004 0ZM3.4 3.06002C3.4 1.74636 4.46637 0.68 5.78004 0.68H8.15992V5.43996H5.78004L5.77267 5.43997C4.46237 5.43598 3.4 4.37121 3.4 3.06002ZM8.16009 8.46762C8.15997 8.47839 8.15992 8.48918 8.15992 8.49998C8.15992 8.51078 8.15997 8.52157 8.16009 8.53234V10.8799H5.78003C4.46637 10.88 3.4 9.81364 3.4 8.49998C3.4 7.18876 4.46241 6.12392 5.77273 6.11997L5.78004 6.11998H8.15992L8.16009 8.46762ZM8.84009 8.52849V8.47147C8.85534 7.17417 9.91052 6.1252 11.2102 6.11998H11.22C11.2224 6.11998 11.2248 6.11997 11.2273 6.11997C12.5376 6.12392 13.6 7.18876 13.6 8.49998C13.6 9.81364 12.5336 10.88 11.22 10.88C9.9158 10.88 8.85538 9.82903 8.84009 8.52849ZM9.29706 6.11998C9.12917 6.25581 8.97593 6.40904 8.84009 6.57691V6.11998H9.29706ZM11.2273 5.43997C11.2249 5.43996 11.2224 5.43996 11.22 5.43996C11.2162 5.43996 11.2125 5.43996 11.2088 5.43998H8.84009V0.68H11.22C12.5336 0.68 13.6 1.74636 13.6 3.06002C13.6 4.37121 12.5376 5.43598 11.2273 5.43997ZM5.78004 11.56C4.46637 11.56 3.4 12.6263 3.4 13.94C3.4 15.2536 4.46637 16.32 5.78004 16.32C7.09372 16.32 8.16009 15.2536 8.16009 13.94V11.56H5.78004Z" fill="#D4AF37"/>
</svg>
