<svg width="17" height="17" viewBox="0 0 17 17" fill="none" xmlns="http://www.w3.org/2000/svg">
<g clip-path="url(#clip0_18_200)">
<path d="M8.5 0C3.80508 0 0 3.80508 0 8.5C0 12.1025 2.24121 15.1771 5.40215 16.4156C5.3291 15.7416 5.25938 14.7123 5.43203 13.9785C5.58809 13.3145 6.42813 9.75508 6.42813 9.75508C6.42813 9.75508 6.17246 9.24707 6.17246 8.49336C6.17246 7.31133 6.85644 6.42813 7.70976 6.42813C8.43359 6.42813 8.78555 6.97266 8.78555 7.62676C8.78555 8.35723 8.3207 9.44629 8.08164 10.4557C7.88242 11.3023 8.50664 11.993 9.34004 11.993C10.8508 11.993 12.0129 10.3992 12.0129 8.10156C12.0129 6.06621 10.552 4.6418 8.46348 4.6418C6.04629 4.6418 4.6252 6.45469 4.6252 8.33066C4.6252 9.06113 4.90742 9.84473 5.25937 10.2697C5.3291 10.3527 5.33906 10.4291 5.31914 10.5121C5.25605 10.7811 5.10996 11.3588 5.0834 11.475C5.04688 11.6311 4.96055 11.6643 4.79785 11.5879C3.73535 11.0932 3.07129 9.54258 3.07129 8.29414C3.07129 5.61133 5.02031 3.15098 8.68594 3.15098C11.6344 3.15098 13.9254 5.25273 13.9254 8.06172C13.9254 10.9902 12.0793 13.3477 9.51602 13.3477C8.65606 13.3477 7.8459 12.8994 7.56699 12.3715C7.56699 12.3715 7.14199 13.9951 7.03906 14.3936C6.84648 15.1307 6.32852 16.057 5.9832 16.6215C6.78008 16.8672 7.62344 17 8.5 17C13.1949 17 17 13.1949 17 8.5C17 3.80508 13.1949 0 8.5 0Z" fill="#D4AF37"/>
</g>
<defs>
<clipPath id="clip0_18_200">
<rect width="17" height="17" fill="white"/>
</clipPath>
</defs>
</svg>
