<svg width="88" height="88" viewBox="0 0 88 88" fill="none" xmlns="http://www.w3.org/2000/svg">
<path d="M43.542 0C55.167 0.00410049 66.0953 4.53714 74.3125 12.7637C82.5295 20.9902 87.0524 31.9246 87.0479 43.5537C87.0383 67.5517 67.5133 87.0762 43.5244 87.0762H43.5068C35.6969 87.0731 28.0369 84.9751 21.3545 81.0098L19.7656 80.0664L3.292 84.3877L7.68946 68.3271L6.6543 66.6807C2.29752 59.7514 -0.00337203 51.7422 3.71039e-06 43.5186C0.00952863 19.5224 19.5346 0 43.542 0ZM24.9854 19.335C24.1132 19.335 22.6954 19.6619 21.4961 20.9717C20.2968 22.2816 16.917 25.4471 16.917 31.8867C16.917 38.3268 21.6055 44.5488 22.2598 45.4219C22.9169 46.3002 31.4885 59.5115 44.6113 65.1777C47.7328 66.5257 50.17 67.3307 52.0703 67.9336C55.2042 68.9295 58.0566 68.7891 60.3106 68.4521C62.8245 68.0767 68.0514 65.2874 69.1426 62.2314C70.2323 59.1747 70.2323 56.5543 69.9053 56.0088C69.5781 55.4633 68.7065 55.1354 67.3984 54.4805C66.09 53.8256 59.6566 50.6607 58.457 50.2236C57.2582 49.7873 56.3857 49.5697 55.5137 50.8789C54.6417 52.1883 52.1348 55.1351 51.3711 56.0088C50.6078 56.8817 49.844 56.992 48.5361 56.3369C47.2277 55.6821 43.0114 54.3004 38.0137 49.8428C34.1244 46.3737 31.4989 42.0896 30.7354 40.7793C29.9721 39.4694 30.6536 38.7608 31.3086 38.1084C31.8973 37.522 32.6173 36.5802 33.2715 35.8164C33.9256 35.0526 34.1439 34.5064 34.5801 33.6338C35.016 32.7603 34.7978 31.9967 34.4707 31.3418C34.1436 30.6869 31.5269 24.2468 30.4365 21.627C29.3745 19.076 28.2962 19.4211 27.4932 19.3809C26.7309 19.3426 25.8575 19.335 24.9854 19.335Z" fill="#020024"/>
</svg>
